<?xml version="1.0" encoding="utf-8"?>
<!-- Generator: Adobe Illustrator 28.1.0, SVG Export Plug-In . SVG Version: 6.00 Build 0)  -->
<svg version="1.1" xmlns="http://www.w3.org/2000/svg" xmlns:xlink="http://www.w3.org/1999/xlink" x="0px" y="0px"
	 viewBox="0 0 3000 3000" style="enable-background:new 0 0 3000 3000;" xml:space="preserve">
<style type="text/css">
	.st0{display:none;}
	.st1{display:inline;fill:#334155;}
	.st2{display:inline;fill:#FDE68A;stroke:#231F20;stroke-miterlimit:10;}
	.st3{display:inline;}
	.st4{fill:#334155;}
	.st5{display:inline;fill:#FCD34D;stroke:#334155;stroke-width:16;stroke-miterlimit:10;}
	.st6{display:inline;fill:none;}
	.st7{fill:#FDE68A;stroke:#231F20;stroke-miterlimit:10;}
	.st8{fill:#FCD34D;stroke:#334155;stroke-width:16;stroke-miterlimit:10;}
	.st9{fill:none;}
	.st10{fill:#FCD34D;}
	.st11{fill:none;stroke:#334155;stroke-width:16;stroke-miterlimit:10;}
	.st12{fill:#FDE68A;}
	.st13{display:inline;fill:#FDE68A;}
</style>
<g id="monkey_v2" class="st0">
	<path class="st1" d="M1562.51,1149.03l-7.41,9.52l-36.8,47.31l-110.02,141.46c0.21-0.02,0.43-0.05,0.64-0.08l117.02-150.46
		l36.8-47.31C1562.66,1149.32,1562.59,1149.18,1562.51,1149.03z M1299.88,1347.99l-0.05,0.11c0.47,0.07,0.94,0.13,1.41,0.19v-0.1
		C1300.78,1348.13,1300.33,1348.06,1299.88,1347.99z"/>
	<path class="st2" d="M1550.78,1636.17l-9.89,12.71c-0.58-11.09-5.85-20.6-17.94-27.44c-13.22-7.48-32.08-10.34-49.64-7.66h-0.01
		c-0.18-0.11-0.35-0.2-0.54-0.29l-73.43-34.28l-102-47.61l-23.75-11.09l72.36-93.04l2.02-2.6l53.32-68.55l1.81-2.33l4.71-6.05
		l0.48-0.62l110.02-141.46l36.8-47.31l7.41-9.52c0.08,0.15,0.15,0.29,0.23,0.44l-36.8,47.31l-117.02,150.46l-0.52,0.7l-4.45,6.05
		l-42.58,57.85l-0.93,1.26l-2.23,2.86c-0.11-0.27-0.22-0.52-0.34-0.79l-1.43,3.07l-0.2,0.42l-72.36,93.04l23.75,11.09l102,47.61
		l73.43,34.28c0.19,0.09,0.36,0.18,0.54,0.29h0.01c17.56-2.68,36.42,0.18,49.64,7.66
		C1543.9,1618.65,1549.25,1626.75,1550.78,1636.17z"/>
	<path class="st1" d="M1718.66,1676.88l-0.14,0.04l-20.06,5.47l-30.65,8.35l-24.04,6.56l-137.47,37.48l-16.46,4.49l-23.68,6.46
		l18.38-23.64c20.3,3.57,36.36-14.21,50.04-38.4c8.83-15.62,14.64-30.83,13.95-43.88v-0.01l131.89-169.57
		c17.36,64.32,31.42,130.58,36.81,188.35C1717.81,1664.78,1718.29,1670.89,1718.66,1676.88z"/>
	<path class="st1" d="M1892.14,2012.85c0,29.38-62.37,24.05-111.91,24.05c-49.55,0-89.71,1.1-89.71-28.28
		c0-10.51,5.24-21.41,14.21-30.67c17.99-26.52,38.52-49.3,46.23-95.06c3.78-22.47-2.31-36.03-15.75-53.7c0-0.01-0.02-0.01-0.02-0.01
		c-0.26-0.11-0.49-0.29-0.72-0.54c-22.96-24.62-76.5-80.62-129.3-65.06c-48.08,14.17-52.45,14.3-73.83,40.3
		c-0.01,0.01-0.01,0.02-0.01,0.02l-0.01,0.01c-3.72,3.45-20.18,36.47-22.2,41.03c-9.12,20.64-17.25,39.82-26.72,59.93
		c-27.3,58-78.8,110.43-118.79,131.17c9.2,6.5,51.88,24.74,66.89,35.69c22.72,16.59,10.85,52.57-17.28,52.37
		c-34.42-0.24-77.17-7.79-103.84-13.64c-58.61-12.87-120.51-28.02-108.66-57.45c12.29-30.53,28.73-28.1,54.19-52.27
		c1.81-1.57,3.63-3.13,5.48-4.68l29.43-23.6l0,0c34.79-27.59,72.02-59.24,99.07-117.25c3.48-7.46,6.79-15.1,9.89-22.85
		c0,0,0.01,0,0.01-0.01l67.37-86.62l23.68-6.46l16.46-4.49l137.47-37.48l24.04-6.56l30.65-8.35l20.06-5.47
		c3.83,2.06,7.74,4.47,11.69,7.19c20.91,14.36,43.02,37.41,60.56,64.02c9.01,13.68,16.82,28.3,22.64,43.17
		c9.12,23.33,13.35,47.26,9.67,69.14c-8.75,51.95-13.45,80.64-30.45,97.34C1839.02,1967.27,1892.14,1985.92,1892.14,2012.85z"/>
	<path class="st1" d="M1581.06,1003.32c-23.96-35.27-73.98-43.13-112-17.72c-51.24-53.37-124.37-81.78-201.93-51.17
		c-9.62,3.8-18.84,8-27.64,12.6c-1.5-6.35-4.12-13.45-7.79-20.63c-10.32-20.2-24.99-33.36-32.75-29.39
		c-6.11,3.12-6.14,15.91-0.83,31.06c-0.18-0.09-0.36-0.18-0.54-0.27c-27.72-14.13-53.63-18.84-57.86-10.53
		c-4.24,8.32,14.8,26.5,42.52,40.63c8.22,4.19,16.28,7.55,23.67,9.98c-48.92,35.93-79.29,86.37-85.69,144.95
		c-7.29,1.04-14.6,3.03-21.76,6.02c-42.49,17.76-63.54,64.21-47.01,103.75c16.1,38.53,61.97,56.28,103.62,40.7
		c33.43,51.34,85.39,75.88,142.15,84.42c0.87,0.13,1.74,0.26,2.61,0.38l0.05-0.11c0.45,0.07,0.9,0.14,1.36,0.2v0.1
		c-0.47-0.06-0.94-0.12-1.41-0.19l-78.44,168.03c-0.18,0.38-0.35,0.77-0.51,1.15c-3.63,8.8-7.17,17.63-11.19,26.25l-3.7,7.92
		c-1.52,5.33-0.18,13.16,5.8,15.95l21.11,9.85l191.6,89.45l15.95,7.45c6.45,18.42,19.91,35.4,34.39,43.58
		c4.29,2.43,8.41,3.94,12.36,4.63c20.3,3.57,36.36-14.21,50.04-38.4c8.83-15.62,14.64-30.83,13.95-43.88v-0.01
		c-0.07-1.33-0.21-2.63-0.41-3.9l-9.89,12.71c-0.58-11.09-5.85-20.6-17.94-27.44c-13.22-7.48-32.08-10.34-49.64-7.66h-0.01
		c-0.18-0.11-0.35-0.2-0.54-0.29l-73.43-34.28l-102-47.61l-23.75-11.09l72.36-93.04l2.02-2.6l53.32-68.55l1.81-2.33l4.71-6.05h-4.42
		c0.59-0.07,1.17-0.14,1.75-0.21c1.05-0.13,2.1-0.27,3.15-0.41l110.02-141.46l36.8-47.31l7.41-9.52
		c-5.07-9.55-10.32-19.37-15.53-29.46c2.95-1.55,5.85-3.29,8.69-5.22C1593.76,1088.48,1605.13,1038.77,1581.06,1003.32z
		 M1385.66,1330.81c-62.69,24.9-126.29,12.92-142.04-26.76c-4.96-12.48-4.59-26.22,0.2-39.96c-26.21-10.35-52.63-33.77-71.38-66.24
		c-25.18-43.62-32.76-116.78,7.71-143.4c27.11-17.84,69.03-10.34,95.05,10.11c8.03,6.31,13.94,13.38,18.54,20.83
		c2.11-14.61,6.73-28.49,14.42-40.69c15.42-24.46,47.28-48.66,79.03-43.84c46.63,7.09,73.72,73.88,69.98,125.4
		c-1.44,19.78-7.59,39.8-16.57,57.46c14.15,6.73,24.78,16.9,30.05,30.18C1486.41,1253.58,1448.36,1305.92,1385.66,1330.81z"/>
	<path class="st1" d="M1301.24,1348.19v0.1c-0.47-0.06-0.94-0.12-1.41-0.19l0.05-0.11
		C1300.33,1348.06,1300.78,1348.13,1301.24,1348.19z"/>
	<path class="st1" d="M1550.78,1636.17l-9.89,12.71c-0.58-11.09-5.85-20.6-17.94-27.44c-13.22-7.48-32.08-10.34-49.64-7.66h-0.01
		c-0.18-0.11-0.35-0.2-0.54-0.29l-73.43-34.28l-102-47.61l-23.75-11.09l72.36-93.04l2.02-2.6l53.32-68.55l1.81-2.33l4.71-6.05h-4.36
		c0.56-0.07,1.12-0.14,1.69-0.21c1.05-0.13,2.1-0.27,3.15-0.41c0.21-0.02,0.43-0.05,0.64-0.08l-0.52,0.7l-4.45,6.05l-42.58,57.85
		l-0.93,1.26l-2.23,2.86c-0.11-0.27-0.22-0.52-0.34-0.79l-1.43,3.07l-0.2,0.42l-72.36,93.04l23.75,11.09l102,47.61l73.43,34.28
		c0.19,0.09,0.36,0.18,0.54,0.29h0.01c17.56-2.68,36.42,0.18,49.64,7.66C1543.9,1618.65,1549.25,1626.75,1550.78,1636.17z"/>
	<path class="st1" d="M1360.44,1413.1l-2.18,2.96c-0.01-0.03-0.03-0.07-0.05-0.1L1360.44,1413.1z"/>
	<path class="st1" d="M1974.42,1120.15c-11.86,41.14-39.6,44.37-56.71,60.04l-33.53,199.17c-3.82,6.89-10.02,16.12-20.35,14.96
		l-26.86-6.38c-20.2-6-40.35-11.99-60.55-17.99c-2.37-0.83-4.75-1.63-7.14-2.37l-10.33-3.22l57.45-73.87l5.62-18.03l33.35-106.93
		c-8.88-19.9-11.9-43.58-8.5-62.16c6.77-37,36.44-39.75,76.19-32.47c21.08,3.86,42.23,6.42,49.22,19.16
		C1981.46,1106.81,1979.31,1103.17,1974.42,1120.15z"/>
	<path class="st1" d="M1220.76,1088.48c-14.37,0-26.3,3.24-35.79,9.73c-9.51,6.49-14.25,19-14.25,37.53
		c0,18.07,4.86,31.86,14.6,41.35c9.73,9.49,21.54,14.25,35.44,14.25c13.44,0,25.6-4.06,36.49-12.16
		c10.88-8.1,16.33-17.73,16.33-28.85C1273.58,1109.1,1255.97,1088.48,1220.76,1088.48z M1251.68,1172.94
		c-9.16,6.82-19.4,10.24-30.7,10.24c-11.69,0-21.63-4.01-29.81-11.99c-8.19-7.99-12.28-19.59-12.28-34.79
		c0-15.58,3.99-26.11,11.98-31.57c7.99-5.45,18.03-8.19,30.11-8.19c29.62,0,44.44,17.35,44.44,52.04
		C1265.42,1158.03,1260.83,1166.13,1251.68,1172.94z"/>
	<path class="st1" d="M1384.3,1037.04c-14.37,0-26.3,3.25-35.8,9.73c-9.5,6.5-14.24,19.01-14.24,37.54
		c0,18.07,4.86,31.86,14.59,41.35c9.73,9.49,21.55,14.25,35.45,14.25c13.43,0,25.6-4.06,36.49-12.16
		c10.88-8.11,16.33-17.73,16.33-28.85C1437.12,1057.67,1419.51,1037.04,1384.3,1037.04z M1415.21,1121.51
		c-9.16,6.82-19.39,10.23-30.69,10.23c-11.7,0-21.63-4-29.82-11.98c-8.19-7.99-12.28-19.59-12.28-34.79
		c0-15.59,3.99-26.11,11.99-31.57c7.98-5.46,18.02-8.19,30.11-8.19c29.62,0,44.43,17.35,44.43,52.03
		C1428.95,1106.6,1424.37,1114.69,1415.21,1121.51z"/>
	<g class="st3">
		<path class="st4" d="M1378.48,1113.48c-3.59,0.32-6.85-1.15-9.78-4.43c-2.93-3.28-4.6-7.08-4.99-11.41
			c-0.41-4.48,0.78-8.43,3.56-11.85c2.78-3.42,7.08-5.39,12.91-5.91c5.98-0.54,10.15,0.62,12.52,3.5c2.37,2.87,3.76,6.63,4.18,11.26
			C1397.91,1106,1391.77,1112.28,1378.48,1113.48z"/>
	</g>
	<g class="st3">
		<path class="st4" d="M1214.09,1164c-3.59,0.32-6.85-1.15-9.78-4.43c-2.93-3.28-4.6-7.08-4.99-11.41
			c-0.41-4.48,0.78-8.43,3.56-11.85c2.78-3.42,7.08-5.39,12.91-5.91c5.98-0.54,10.15,0.62,12.52,3.5c2.37,2.87,3.76,6.63,4.18,11.26
			C1233.53,1156.51,1227.39,1162.79,1214.09,1164z"/>
	</g>
	<g class="st3">
		<path class="st4" d="M1829.98,1436.05c-49.51,7.49-93.13,33.81-122.83,74.1c-20.05,27.19-33.64,57.78-40.31,89.91
			c8.8,13.32,16.25,28.13,22.24,43.38c0.68-42.03,14.35-82.73,39.8-117.26c25.42-34.5,62.76-57.03,105.13-63.43
			c42.37-6.41,84.7,4.07,119.2,29.48c55.76,41.11,67.69,119.93,26.58,175.69c-32.01,43.42-93.36,52.7-136.77,20.7
			c-16.25-11.98-26.85-29.56-29.88-49.51c-3.01-19.95,1.92-39.89,13.89-56.13c9.15-12.41,22.59-20.52,37.85-22.83
			c15.24-2.31,30.49,1.46,42.9,10.62c9.35,6.89,15.46,17.02,17.19,28.5c1.74,11.49-1.1,22.96-7.99,32.32
			c-10.5,14.24-30.64,17.29-44.88,6.78c-10.2-7.52-12.38-21.93-4.87-32.12c5.14-6.96,14.97-8.45,21.93-3.32
			c6.01,4.43,14.46,3.15,18.88-2.85c4.43-6.01,3.14-14.45-2.86-18.87c-18.94-13.97-45.72-9.91-59.68,9.02
			c-16.35,22.18-11.6,53.53,10.57,69.89c26.22,19.33,63.29,13.73,82.63-12.5c11.18-15.16,15.77-33.76,12.95-52.37
			c-2.82-18.62-12.71-35.02-27.86-46.19c-18.22-13.43-40.58-18.97-62.96-15.58c-22.38,3.38-42.1,15.29-55.53,33.51
			c-16.26,22.05-22.95,49.11-18.86,76.19c4.11,27.08,18.5,50.96,40.54,67.21c55.4,40.84,133.7,28.99,174.53-26.4
			c49.94-67.75,35.46-163.51-32.29-213.45C1928.93,1440.8,1879.48,1428.56,1829.98,1436.05z"/>
	</g>
	<path class="st5" d="M2272.22,579.66l-67.06,209.99c-2.47,7.76-11.91,10.7-18.36,5.73l-203.6-156.89
		c-6.37-4.91-6.04-14.62,0.65-19.08l181.71-121.15c9.92-6.61,22.61-6.93,32.75-1.15c1.24,0.7,2.44,1.5,3.6,2.39l59.63,45.95
		c3.7,2.86,6.63,6.43,8.68,10.41C2273.94,563.06,2274.8,571.6,2272.22,579.66z"/>
	<path class="st5" d="M2335.5,476.79l-65.15,73.43c-2.05-3.98-4.98-7.55-8.68-10.41l-59.63-45.95c-1.16-0.89-2.36-1.69-3.6-2.39
		l38.66-43.57c1.04-1.17,2.65-1.67,4.17-1.28l92.13,23.32C2336.44,470.71,2337.59,474.44,2335.5,476.79z"/>
	<path class="st6" d="M1470.65,1213.9c-5.27-13.28-15.9-23.45-30.05-30.18c8.98-17.66,15.13-37.68,16.57-57.46
		c3.74-51.52-23.35-118.31-69.98-125.4c-31.75-4.82-63.61,19.38-79.03,43.84c-7.69,12.2-12.31,26.08-14.42,40.69
		c-4.6-7.45-10.51-14.52-18.54-20.83c-26.02-20.45-67.94-27.95-95.05-10.11c-40.47,26.62-32.89,99.78-7.71,143.4
		c18.75,32.47,45.17,55.89,71.38,66.24c-4.79,13.74-5.16,27.48-0.2,39.96c15.75,39.68,79.35,51.66,142.04,26.76
		C1448.36,1305.92,1486.41,1253.58,1470.65,1213.9z M1257.25,1179.18c-10.89,8.1-23.05,12.16-36.49,12.16
		c-13.9,0-25.71-4.76-35.44-14.25c-9.74-9.49-14.6-23.28-14.6-41.35c0-18.53,4.74-31.04,14.25-37.53
		c9.49-6.49,21.42-9.73,35.79-9.73c35.21,0,52.82,20.62,52.82,61.85C1273.58,1161.45,1268.13,1171.08,1257.25,1179.18z
		 M1420.79,1127.75c-10.89,8.1-23.06,12.16-36.49,12.16c-13.9,0-25.72-4.76-35.45-14.25c-9.73-9.49-14.59-23.28-14.59-41.35
		c0-18.53,4.74-31.04,14.24-37.54c9.5-6.48,21.43-9.73,35.8-9.73c35.21,0,52.82,20.63,52.82,61.86
		C1437.12,1110.02,1431.67,1119.64,1420.79,1127.75z"/>
	<path class="st1" d="M1392.64,1222.51c-4.26-8.28-12.06-12.42-23.38-12.42c-7.41,0-13.56,1.68-18.46,5.02
		c-4.9,3.35-7.34,9.8-7.34,19.36c0,0.99,0.03,1.95,0.09,2.89c-2.44-4.35-3.67-9.78-3.67-16.28c0-9.55,2.44-16,7.34-19.36
		c4.9-3.34,11.05-5.02,18.46-5.02C1382.01,1196.7,1391,1205.3,1392.64,1222.51z"/>
	<path class="st1" d="M1328.64,1236.54c-4.26-8.28-12.06-12.42-23.38-12.42c-7.41,0-13.56,1.68-18.46,5.02
		c-4.9,3.35-7.34,9.8-7.34,19.36c0,0.99,0.03,1.95,0.09,2.89c-2.44-4.35-3.67-9.78-3.67-16.28c0-9.55,2.44-16,7.34-19.36
		c4.9-3.34,11.05-5.02,18.46-5.02C1318.01,1210.73,1327,1219.33,1328.64,1236.54z"/>
	<path class="st1" d="M1357.87,1415.17c0.12,0.27,0.23,0.52,0.34,0.79l-1.77,2.28L1357.87,1415.17z"/>
	<polygon class="st1" points="1361.42,1411.84 1360.44,1413.1 1361.37,1411.84 	"/>
	<polygon class="st1" points="1408.4,1347.94 1403.95,1353.99 1403.09,1353.99 1407.8,1347.94 	"/>
	<path class="st5" d="M1978.04,664c-13.18-10.25-32.19-7.88-42.44,5.31l-373.09,479.73c0.08,0.15,0.15,0.29,0.23,0.44l-36.8,47.31
		l-117.02,150.46l-0.52,0.7l-4.45,6.05l-42.58,57.85l-0.93,1.26l-2.23,2.86c-0.11-0.27-0.22-0.52-0.34-0.79l-1.43,3.07l-0.2,0.42
		l-72.36,93.04l23.75,11.09l102,47.61l73.43,34.28c0.19,0.09,0.36,0.18,0.54,0.29h0.01c17.56-2.68,36.42,0.18,49.64,7.66
		c10.65,6.02,16,14.12,17.53,23.54l122-156.86l87.32-112.27l57.45-73.87l5.62-18.03l33.35-106.93c-8.88-19.9-11.9-43.58-8.5-62.16
		c6.77-37,36.44-39.75,76.19-32.47c21.08,3.86,38.51,9.34,49.22,19.16l190.94-245.51c10.25-13.18,7.88-32.19-5.31-42.44L1978.04,664
		z M1575.61,1270.95l-132.54,169.75c-4.06,5.2-11.64,6.14-16.84,2.07v0c-5.2-4.06-6.14-11.64-2.07-16.84l132.77-170.05
		c4.3-5.51,12.56-6.23,17.75-1.29C1579.19,1258.89,1579.45,1266.03,1575.61,1270.95z M1639.21,1198.49
		c-4.06,5.2-11.64,6.14-16.84,2.07l-5.71-4.46c-5.2-4.06-6.14-11.64-2.07-16.84l344.75-441.54c4.06-5.2,11.64-6.14,16.84-2.07
		l5.71,4.46c5.2,4.06,6.14,11.64,2.07,16.84L1639.21,1198.49z"/>
	<path class="st5" d="M1487.84,1722.09l-18.38,23.64l-67.37,86.62c0,0.01-0.01,0.01-0.01,0.01l-108.96,140.1l-17.16,22.07
		c-2.96,3.81-8.46,4.5-12.27,1.53l0,0l-214.98-167.19c-3.81-2.96-4.5-8.45-1.53-12.27l186.36-239.62l191.6,89.45l15.95,7.45
		c6.45,18.42,19.91,35.4,34.39,43.58C1479.77,1719.89,1483.89,1721.4,1487.84,1722.09z"/>
</g>
<g id="monkey_v3">
	<path class="st4" d="M1562.51,1149.03l-7.41,9.52l-36.8,47.31l-110.02,141.46c0.21-0.02,0.43-0.05,0.64-0.08l117.02-150.46
		l36.8-47.31C1562.66,1149.32,1562.59,1149.18,1562.51,1149.03z M1299.88,1347.99l-0.05,0.11c0.47,0.07,0.94,0.13,1.41,0.19v-0.1
		C1300.78,1348.13,1300.33,1348.06,1299.88,1347.99z"/>
	<path class="st7" d="M1550.78,1636.17l-9.89,12.71c-0.58-11.09-5.85-20.6-17.94-27.44c-13.22-7.48-32.08-10.34-49.64-7.66h-0.01
		c-0.18-0.11-0.35-0.2-0.54-0.29l-73.43-34.28l-102-47.61l-23.75-11.09l72.36-93.04l2.02-2.6l53.32-68.55l1.81-2.33l4.71-6.05
		l0.48-0.62l110.02-141.46l36.8-47.31l7.41-9.52c0.08,0.15,0.15,0.29,0.23,0.44l-36.8,47.31l-117.02,150.46l-0.52,0.7l-4.45,6.05
		l-42.58,57.85l-0.93,1.26l-2.23,2.86c-0.11-0.27-0.22-0.52-0.34-0.79l-1.43,3.07l-0.2,0.42l-72.36,93.04l23.75,11.09l102,47.61
		l73.43,34.28c0.19,0.09,0.36,0.18,0.54,0.29h0.01c17.56-2.68,36.42,0.18,49.64,7.66
		C1543.9,1618.65,1549.25,1626.75,1550.78,1636.17z"/>
	<path class="st4" d="M1718.66,1676.88l-0.14,0.04l-20.06,5.47l-30.65,8.35l-24.04,6.56l-137.47,37.48l-16.46,4.49l-23.68,6.46
		l18.38-23.64c20.3,3.57,36.36-14.21,50.04-38.4c8.83-15.62,14.64-30.83,13.95-43.88v-0.01l131.89-169.57
		c17.36,64.32,31.42,130.58,36.81,188.35C1717.81,1664.78,1718.29,1670.89,1718.66,1676.88z"/>
	<path class="st4" d="M1892.14,2012.85c0,29.38-62.37,24.05-111.91,24.05c-49.55,0-89.71,1.1-89.71-28.28
		c0-10.51,5.24-21.41,14.21-30.67c17.99-26.52,38.52-49.3,46.23-95.06c3.78-22.47-2.31-36.03-15.75-53.7c0-0.01-0.02-0.01-0.02-0.01
		c-0.26-0.11-0.49-0.29-0.72-0.54c-22.96-24.62-76.5-80.62-129.3-65.06c-48.08,14.17-52.45,14.3-73.83,40.3
		c-0.01,0.01-0.01,0.02-0.01,0.02l-0.01,0.01c-3.72,3.45-20.18,36.47-22.2,41.03c-9.12,20.64-17.25,39.82-26.72,59.93
		c-27.3,58-78.8,110.43-118.79,131.17c9.2,6.5,51.88,24.74,66.89,35.69c22.72,16.59,10.85,52.57-17.28,52.37
		c-34.42-0.24-77.17-7.79-103.84-13.64c-58.61-12.87-120.51-28.02-108.66-57.45c12.29-30.53,28.73-28.1,54.19-52.27
		c1.81-1.57,3.63-3.13,5.48-4.68l29.43-23.6l0,0c34.79-27.59,72.02-59.24,99.07-117.25c3.48-7.46,6.79-15.1,9.89-22.85
		c0,0,0.01,0,0.01-0.01l67.37-86.62l23.68-6.46l16.46-4.49l137.47-37.48l24.04-6.56l30.65-8.35l20.06-5.47
		c3.83,2.06,7.74,4.47,11.69,7.19c20.91,14.36,43.02,37.41,60.56,64.02c9.01,13.68,16.82,28.3,22.64,43.17
		c9.12,23.33,13.35,47.26,9.67,69.14c-8.75,51.95-13.45,80.64-30.45,97.34C1839.02,1967.27,1892.14,1985.92,1892.14,2012.85z"/>
	<path class="st4" d="M1581.06,1003.32c-23.96-35.27-73.98-43.13-112-17.72c-51.24-53.37-124.37-81.78-201.93-51.17
		c-9.62,3.8-18.84,8-27.64,12.6c-1.5-6.35-4.12-13.45-7.79-20.63c-10.32-20.2-24.99-33.36-32.75-29.39
		c-6.11,3.12-6.14,15.91-0.83,31.06c-0.18-0.09-0.36-0.18-0.54-0.27c-27.72-14.13-53.63-18.84-57.86-10.53
		c-4.24,8.32,14.8,26.5,42.52,40.63c8.22,4.19,16.28,7.55,23.67,9.98c-48.92,35.93-79.29,86.37-85.69,144.95
		c-7.29,1.04-14.6,3.03-21.76,6.02c-42.49,17.76-63.54,64.21-47.01,103.75c16.1,38.53,61.97,56.28,103.62,40.7
		c33.43,51.34,85.39,75.88,142.15,84.42c0.87,0.13,1.74,0.26,2.61,0.38l0.05-0.11c0.45,0.07,0.9,0.14,1.36,0.2v0.1
		c-0.47-0.06-0.94-0.12-1.41-0.19l-78.44,168.03c-0.18,0.38-0.35,0.77-0.51,1.15c-3.63,8.8-7.17,17.63-11.19,26.25l-3.7,7.92
		c-1.52,5.33-0.18,13.16,5.8,15.95l21.11,9.85l191.6,89.45l15.95,7.45c6.45,18.42,19.91,35.4,34.39,43.58
		c4.29,2.43,8.41,3.94,12.36,4.63c20.3,3.57,36.36-14.21,50.04-38.4c8.83-15.62,14.64-30.83,13.95-43.88v-0.01
		c-0.07-1.33-0.21-2.63-0.41-3.9l-9.89,12.71c-0.58-11.09-5.85-20.6-17.94-27.44c-13.22-7.48-32.08-10.34-49.64-7.66h-0.01
		c-0.18-0.11-0.35-0.2-0.54-0.29l-73.43-34.28l-102-47.61l-23.75-11.09l72.36-93.04l2.02-2.6l53.32-68.55l1.81-2.33l4.71-6.05h-4.42
		c0.59-0.07,1.17-0.14,1.75-0.21c1.05-0.13,2.1-0.27,3.15-0.41l110.02-141.46l36.8-47.31l7.41-9.52
		c-5.07-9.55-10.32-19.37-15.53-29.46c2.95-1.55,5.85-3.29,8.69-5.22C1593.76,1088.48,1605.13,1038.77,1581.06,1003.32z
		 M1385.66,1330.81c-62.69,24.9-126.29,12.92-142.04-26.76c-4.96-12.48-4.59-26.22,0.2-39.96c-26.21-10.35-52.63-33.77-71.38-66.24
		c-25.18-43.62-32.76-116.78,7.71-143.4c27.11-17.84,69.03-10.34,95.05,10.11c8.03,6.31,13.94,13.38,18.54,20.83
		c2.11-14.61,6.73-28.49,14.42-40.69c15.42-24.46,47.28-48.66,79.03-43.84c46.63,7.09,73.72,73.88,69.98,125.4
		c-1.44,19.78-7.59,39.8-16.57,57.46c14.15,6.73,24.78,16.9,30.05,30.18C1486.41,1253.58,1448.36,1305.92,1385.66,1330.81z"/>
	<path class="st4" d="M1301.24,1348.19v0.1c-0.47-0.06-0.94-0.12-1.41-0.19l0.05-0.11
		C1300.33,1348.06,1300.78,1348.13,1301.24,1348.19z"/>
	<path class="st4" d="M1550.78,1636.17l-9.89,12.71c-0.58-11.09-5.85-20.6-17.94-27.44c-13.22-7.48-32.08-10.34-49.64-7.66h-0.01
		c-0.18-0.11-0.35-0.2-0.54-0.29l-73.43-34.28l-102-47.61l-23.75-11.09l72.36-93.04l2.02-2.6l53.32-68.55l1.81-2.33l4.71-6.05h-4.36
		c0.56-0.07,1.12-0.14,1.69-0.21c1.05-0.13,2.1-0.27,3.15-0.41c0.21-0.02,0.43-0.05,0.64-0.08l-0.52,0.7l-4.45,6.05l-42.58,57.85
		l-0.93,1.26l-2.23,2.86c-0.11-0.27-0.22-0.52-0.34-0.79l-1.43,3.07l-0.2,0.42l-72.36,93.04l23.75,11.09l102,47.61l73.43,34.28
		c0.19,0.09,0.36,0.18,0.54,0.29h0.01c17.56-2.68,36.42,0.18,49.64,7.66C1543.9,1618.65,1549.25,1626.75,1550.78,1636.17z"/>
	<path class="st4" d="M1360.44,1413.1l-2.18,2.96c-0.01-0.03-0.03-0.07-0.05-0.1L1360.44,1413.1z"/>
	<path class="st4" d="M1974.42,1120.15c-11.86,41.14-39.6,44.37-56.71,60.04l-33.53,199.17c-3.82,6.89-10.02,16.12-20.35,14.96
		l-26.86-6.38c-20.2-6-40.35-11.99-60.55-17.99c-2.37-0.83-4.75-1.63-7.14-2.37l-10.33-3.22l57.45-73.87l5.62-18.03l33.35-106.93
		c-8.88-19.9-11.9-43.58-8.5-62.16c6.77-37,36.44-39.75,76.19-32.47c21.08,3.86,42.23,6.42,49.22,19.16
		C1981.46,1106.81,1979.31,1103.17,1974.42,1120.15z"/>
	<path class="st4" d="M1220.76,1088.48c-14.37,0-26.3,3.24-35.79,9.73c-9.51,6.49-14.25,19-14.25,37.53
		c0,18.07,4.86,31.86,14.6,41.35c9.73,9.49,21.54,14.25,35.44,14.25c13.44,0,25.6-4.06,36.49-12.16
		c10.88-8.1,16.33-17.73,16.33-28.85C1273.58,1109.1,1255.97,1088.48,1220.76,1088.48z M1251.68,1172.94
		c-9.16,6.82-19.4,10.24-30.7,10.24c-11.69,0-21.63-4.01-29.81-11.99c-8.19-7.99-12.28-19.59-12.28-34.79
		c0-15.58,3.99-26.11,11.98-31.57c7.99-5.45,18.03-8.19,30.11-8.19c29.62,0,44.44,17.35,44.44,52.04
		C1265.42,1158.03,1260.83,1166.13,1251.68,1172.94z"/>
	<path class="st4" d="M1384.3,1037.04c-14.37,0-26.3,3.25-35.8,9.73c-9.5,6.5-14.24,19.01-14.24,37.54
		c0,18.07,4.86,31.86,14.59,41.35c9.73,9.49,21.55,14.25,35.45,14.25c13.43,0,25.6-4.06,36.49-12.16
		c10.88-8.11,16.33-17.73,16.33-28.85C1437.12,1057.67,1419.51,1037.04,1384.3,1037.04z M1415.21,1121.51
		c-9.16,6.82-19.39,10.23-30.69,10.23c-11.7,0-21.63-4-29.82-11.98c-8.19-7.99-12.28-19.59-12.28-34.79
		c0-15.59,3.99-26.11,11.99-31.57c7.98-5.46,18.02-8.19,30.11-8.19c29.62,0,44.43,17.35,44.43,52.03
		C1428.95,1106.6,1424.37,1114.69,1415.21,1121.51z"/>
	<g>
		<path class="st4" d="M1378.48,1113.48c-3.59,0.32-6.85-1.15-9.78-4.43c-2.93-3.28-4.6-7.08-4.99-11.41
			c-0.41-4.48,0.78-8.43,3.56-11.85c2.78-3.42,7.08-5.39,12.91-5.91c5.98-0.54,10.15,0.62,12.52,3.5c2.37,2.87,3.76,6.63,4.18,11.26
			C1397.91,1106,1391.77,1112.28,1378.48,1113.48z"/>
	</g>
	<g>
		<path class="st4" d="M1214.09,1164c-3.59,0.32-6.85-1.15-9.78-4.43c-2.93-3.28-4.6-7.08-4.99-11.41
			c-0.41-4.48,0.78-8.43,3.56-11.85c2.78-3.42,7.08-5.39,12.91-5.91c5.98-0.54,10.15,0.62,12.52,3.5c2.37,2.87,3.76,6.63,4.18,11.26
			C1233.53,1156.51,1227.39,1162.79,1214.09,1164z"/>
	</g>
	<g>
		<path class="st4" d="M1829.98,1436.05c-49.51,7.49-93.13,33.81-122.83,74.1c-20.05,27.19-33.64,57.78-40.31,89.91
			c8.8,13.32,16.25,28.13,22.24,43.38c0.68-42.03,14.35-82.73,39.8-117.26c25.42-34.5,62.76-57.03,105.13-63.43
			c42.37-6.41,84.7,4.07,119.2,29.48c55.76,41.11,67.69,119.93,26.58,175.69c-32.01,43.42-93.36,52.7-136.77,20.7
			c-16.25-11.98-26.85-29.56-29.88-49.51c-3.01-19.95,1.92-39.89,13.89-56.13c9.15-12.41,22.59-20.52,37.85-22.83
			c15.24-2.31,30.49,1.46,42.9,10.62c9.35,6.89,15.46,17.02,17.19,28.5c1.74,11.49-1.1,22.96-7.99,32.32
			c-10.5,14.24-30.64,17.29-44.88,6.78c-10.2-7.52-12.38-21.93-4.87-32.12c5.14-6.96,14.97-8.45,21.93-3.32
			c6.01,4.43,14.46,3.15,18.88-2.85c4.43-6.01,3.14-14.45-2.86-18.87c-18.94-13.97-45.72-9.91-59.68,9.02
			c-16.35,22.18-11.6,53.53,10.57,69.89c26.22,19.33,63.29,13.73,82.63-12.5c11.18-15.16,15.77-33.76,12.95-52.37
			c-2.82-18.62-12.71-35.02-27.86-46.19c-18.22-13.43-40.58-18.97-62.96-15.58c-22.38,3.38-42.1,15.29-55.53,33.51
			c-16.26,22.05-22.95,49.11-18.86,76.19c4.11,27.08,18.5,50.96,40.54,67.21c55.4,40.84,133.7,28.99,174.53-26.4
			c49.94-67.75,35.46-163.51-32.29-213.45C1928.93,1440.8,1879.48,1428.56,1829.98,1436.05z"/>
	</g>
	<path class="st8" d="M2272.22,579.66l-67.06,209.99c-2.47,7.76-11.91,10.7-18.36,5.73l-203.6-156.89
		c-6.37-4.91-6.04-14.62,0.65-19.08l181.71-121.15c9.92-6.61,22.61-6.93,32.75-1.15c1.24,0.7,2.44,1.5,3.6,2.39l59.63,45.95
		c3.7,2.86,6.63,6.43,8.68,10.41C2273.94,563.06,2274.8,571.6,2272.22,579.66z"/>
	<path class="st8" d="M2335.5,476.79l-65.15,73.43c-2.05-3.98-4.98-7.55-8.68-10.41l-59.63-45.95c-1.16-0.89-2.36-1.69-3.6-2.39
		l38.66-43.57c1.04-1.17,2.65-1.67,4.17-1.28l92.13,23.32C2336.44,470.71,2337.59,474.44,2335.5,476.79z"/>
	<path class="st9" d="M1470.65,1213.9c-5.27-13.28-15.9-23.45-30.05-30.18c8.98-17.66,15.13-37.68,16.57-57.46
		c3.74-51.52-23.35-118.31-69.98-125.4c-31.75-4.82-63.61,19.38-79.03,43.84c-7.69,12.2-12.31,26.08-14.42,40.69
		c-4.6-7.45-10.51-14.52-18.54-20.83c-26.02-20.45-67.94-27.95-95.05-10.11c-40.47,26.62-32.89,99.78-7.71,143.4
		c18.75,32.47,45.17,55.89,71.38,66.24c-4.79,13.74-5.16,27.48-0.2,39.96c15.75,39.68,79.35,51.66,142.04,26.76
		C1448.36,1305.92,1486.41,1253.58,1470.65,1213.9z M1257.25,1179.18c-10.89,8.1-23.05,12.16-36.49,12.16
		c-13.9,0-25.71-4.76-35.44-14.25c-9.74-9.49-14.6-23.28-14.6-41.35c0-18.53,4.74-31.04,14.25-37.53
		c9.49-6.49,21.42-9.73,35.79-9.73c35.21,0,52.82,20.62,52.82,61.85C1273.58,1161.45,1268.13,1171.08,1257.25,1179.18z
		 M1420.79,1127.75c-10.89,8.1-23.06,12.16-36.49,12.16c-13.9,0-25.72-4.76-35.45-14.25c-9.73-9.49-14.59-23.28-14.59-41.35
		c0-18.53,4.74-31.04,14.24-37.54c9.5-6.48,21.43-9.73,35.8-9.73c35.21,0,52.82,20.63,52.82,61.86
		C1437.12,1110.02,1431.67,1119.64,1420.79,1127.75z"/>
	<path class="st4" d="M1392.64,1222.51c-4.26-8.28-12.06-12.42-23.38-12.42c-7.41,0-13.56,1.68-18.46,5.02
		c-4.9,3.35-7.34,9.8-7.34,19.36c0,0.99,0.03,1.95,0.09,2.89c-2.44-4.35-3.67-9.78-3.67-16.28c0-9.55,2.44-16,7.34-19.36
		c4.9-3.34,11.05-5.02,18.46-5.02C1382.01,1196.7,1391,1205.3,1392.64,1222.51z"/>
	<path class="st4" d="M1328.64,1236.54c-4.26-8.28-12.06-12.42-23.38-12.42c-7.41,0-13.56,1.68-18.46,5.02
		c-4.9,3.35-7.34,9.8-7.34,19.36c0,0.99,0.03,1.95,0.09,2.89c-2.44-4.35-3.67-9.78-3.67-16.28c0-9.55,2.44-16,7.34-19.36
		c4.9-3.34,11.05-5.02,18.46-5.02C1318.01,1210.73,1327,1219.33,1328.64,1236.54z"/>
	<path class="st4" d="M1357.87,1415.17c0.12,0.27,0.23,0.52,0.34,0.79l-1.77,2.28L1357.87,1415.17z"/>
	<polygon class="st4" points="1361.42,1411.84 1360.44,1413.1 1361.37,1411.84 	"/>
	<polygon class="st4" points="1408.4,1347.94 1403.95,1353.99 1403.09,1353.99 1407.8,1347.94 	"/>
	<path class="st8" d="M1978.04,664c-13.18-10.25-32.19-7.88-42.44,5.31l-373.09,479.73c0.08,0.15,0.15,0.29,0.23,0.44l-36.8,47.31
		l-117.02,150.46l-0.52,0.7l-4.45,6.05l-42.58,57.85l-0.93,1.26l-2.23,2.86c-0.11-0.27-0.22-0.52-0.34-0.79l-1.43,3.07l-0.2,0.42
		l-72.36,93.04l23.75,11.09l102,47.61l73.43,34.28c0.19,0.09,0.36,0.18,0.54,0.29h0.01c17.56-2.68,36.42,0.18,49.64,7.66
		c10.65,6.02,16,14.12,17.53,23.54l122-156.86l87.32-112.27l57.45-73.87l5.62-18.03l33.35-106.93c-8.88-19.9-11.9-43.58-8.5-62.16
		c6.77-37,36.44-39.75,76.19-32.47c21.08,3.86,38.51,9.34,49.22,19.16l190.94-245.51c10.25-13.18,7.88-32.19-5.31-42.44L1978.04,664
		z M1575.61,1270.95l-132.54,169.75c-4.06,5.2-11.64,6.14-16.84,2.07v0c-5.2-4.06-6.14-11.64-2.07-16.84l132.77-170.05
		c4.3-5.51,12.56-6.23,17.75-1.29C1579.19,1258.89,1579.45,1266.03,1575.61,1270.95z M1639.21,1198.49
		c-4.06,5.2-11.64,6.14-16.84,2.07l-5.71-4.46c-5.2-4.06-6.14-11.64-2.07-16.84l344.75-441.54c4.06-5.2,11.64-6.14,16.84-2.07
		l5.71,4.46c5.2,4.06,6.14,11.64,2.07,16.84L1639.21,1198.49z"/>
	<path class="st8" d="M1487.84,1722.09l-18.38,23.64l-67.37,86.62c0,0.01-0.01,0.01-0.01,0.01l-108.96,140.1l-17.16,22.07
		c-2.96,3.81-8.46,4.5-12.27,1.53l0,0l-214.98-167.19c-3.81-2.96-4.5-8.45-1.53-12.27l186.36-239.62l191.6,89.45l15.95,7.45
		c6.45,18.42,19.91,35.4,34.39,43.58C1479.77,1719.89,1483.89,1721.4,1487.84,1722.09z"/>
	<g>
		<path class="st8" d="M1455.76,921.67c-0.63,0.1-1.26,0.25-1.89,0.46l-364.72,120.65c-0.94,0.31-1.82,0.73-2.62,1.24
			c-0.46-1.19-0.91-2.42-1.33-3.7c-17.66-53.39,6.98-152.33,85.75-200.05c11.99,12.72,34.5,17.22,56.78,9.85
			c20.32-6.73,34.91-21.49,38.87-37.21c88.26-3.05,169.95,47.23,186.46,97.18C1454.41,914.16,1455.3,918.02,1455.76,921.67z"/>
		<path class="st8" d="M1477.26,992.86c-139.04-6.69-260.36,34.19-364.71,120.65c-6.27,2.07-13.09-1.36-15.16-7.63l-15.86-47.94
			c-1.77-5.33,0.45-11.05,5-13.92c0.8-0.51,1.68-0.93,2.62-1.24c116.71-82.64,238.42-121.71,364.72-120.65
			c0.63-0.21,1.26-0.36,1.89-0.46c5.69-0.9,11.4,2.44,13.27,8.08l15.86,47.94C1486.96,983.96,1483.53,990.78,1477.26,992.86z"/>
		<g>
			<path class="st10" d="M1277.48,791.58c1.98,5.75-7.02,13.07-7.27,18.9c-0.26,5.89,8.11,13.85,5.84,19.39
				c-2.21,5.38-13.84,5.33-17.72,9.97c-3.71,4.44-1.44,15.85-6.47,19.25c-4.77,3.22-14.55-3.03-20.33-1.04
				c-5.78,1.99-9.63,12.94-15.37,13.34c-6.06,0.42-11.31-9.97-16.96-11.18c-5.92-1.27-15.05,5.93-20.1,3.05
				c-5.21-2.96-3.51-14.39-7.34-18.87c-3.79-4.44-15.39-4.67-17.37-10.42c-1.98-5.75,7.02-13.07,7.27-18.9
				c0.26-5.89-8.11-13.85-5.84-19.39c2.21-5.38,13.84-5.33,17.72-9.97c3.71-4.44,1.44-15.85,6.47-19.25
				c4.77-3.22,14.55,3.03,20.33,1.04c5.78-1.99,9.63-12.94,15.37-13.34c6.06-0.42,11.31,9.97,16.96,11.18
				c5.92,1.27,15.05-5.93,20.1-3.05c5.21,2.96,3.51,14.39,7.34,18.87C1263.91,785.6,1275.5,785.83,1277.48,791.58z"/>
			<path class="st11" d="M1277.48,791.58c1.98,5.75-7.02,13.07-7.27,18.9c-0.26,5.89,8.11,13.85,5.84,19.39
				c-2.21,5.38-13.84,5.33-17.72,9.97c-3.71,4.44-1.44,15.85-6.47,19.25c-4.77,3.22-14.55-3.03-20.33-1.04
				c-5.78,1.99-9.63,12.94-15.37,13.34c-6.06,0.42-11.31-9.97-16.96-11.18c-5.92-1.27-15.05,5.93-20.1,3.05
				c-5.21-2.96-3.51-14.39-7.34-18.87c-3.79-4.44-15.39-4.67-17.37-10.42c-1.98-5.75,7.02-13.07,7.27-18.9
				c0.26-5.89-8.11-13.85-5.84-19.39c2.21-5.38,13.84-5.33,17.72-9.97c3.71-4.44,1.44-15.85,6.47-19.25
				c4.77-3.22,14.55,3.03,20.33,1.04c5.78-1.99,9.63-12.94,15.37-13.34c6.06-0.42,11.31,9.97,16.96,11.18
				c5.92,1.27,15.05-5.93,20.1-3.05c5.21,2.96,3.51,14.39,7.34,18.87C1263.91,785.6,1275.5,785.83,1277.48,791.58z"/>
		</g>
	</g>
</g>
<g id="Layer_4" class="st0">
	<g class="st3">
		<path class="st8" d="M1455.76,921.67c-0.63,0.1-1.26,0.25-1.89,0.46l-364.72,120.65c-0.94,0.31-1.82,0.73-2.62,1.24
			c-0.46-1.19-0.91-2.42-1.33-3.7c-17.66-53.39,6.98-152.33,85.75-200.05c11.99,12.72,34.5,17.22,56.78,9.85
			c20.32-6.73,34.91-21.49,38.87-37.21c88.26-3.05,169.95,47.23,186.46,97.18C1454.41,914.16,1455.3,918.02,1455.76,921.67z"/>
		<path class="st8" d="M1477.26,992.86c-139.04-6.69-260.36,34.19-364.71,120.65c-6.27,2.07-13.09-1.36-15.16-7.63l-15.86-47.94
			c-1.77-5.33,0.45-11.05,5-13.92c0.8-0.51,1.68-0.93,2.62-1.24c116.71-82.64,238.42-121.71,364.72-120.65
			c0.63-0.21,1.26-0.36,1.89-0.46c5.69-0.9,11.4,2.44,13.27,8.08l15.86,47.94C1486.96,983.96,1483.53,990.78,1477.26,992.86z"/>
		<g>
			<path class="st10" d="M1277.48,791.58c1.98,5.75-7.02,13.07-7.27,18.9c-0.26,5.89,8.11,13.85,5.84,19.39
				c-2.21,5.38-13.84,5.33-17.72,9.97c-3.71,4.44-1.44,15.85-6.47,19.25c-4.77,3.22-14.55-3.03-20.33-1.04
				c-5.78,1.99-9.63,12.94-15.37,13.34c-6.06,0.42-11.31-9.97-16.96-11.18c-5.92-1.27-15.05,5.93-20.1,3.05
				c-5.21-2.96-3.51-14.39-7.34-18.87c-3.79-4.44-15.39-4.67-17.37-10.42c-1.98-5.75,7.02-13.07,7.27-18.9
				c0.26-5.89-8.11-13.85-5.84-19.39c2.21-5.38,13.84-5.33,17.72-9.97c3.71-4.44,1.44-15.85,6.47-19.25
				c4.77-3.22,14.55,3.03,20.33,1.04c5.78-1.99,9.63-12.94,15.37-13.34c6.06-0.42,11.31,9.97,16.96,11.18
				c5.92,1.27,15.05-5.93,20.1-3.05c5.21,2.96,3.51,14.39,7.34,18.87C1263.91,785.6,1275.5,785.83,1277.48,791.58z"/>
			<path class="st11" d="M1277.48,791.58c1.98,5.75-7.02,13.07-7.27,18.9c-0.26,5.89,8.11,13.85,5.84,19.39
				c-2.21,5.38-13.84,5.33-17.72,9.97c-3.71,4.44-1.44,15.85-6.47,19.25c-4.77,3.22-14.55-3.03-20.33-1.04
				c-5.78,1.99-9.63,12.94-15.37,13.34c-6.06,0.42-11.31-9.97-16.96-11.18c-5.92-1.27-15.05,5.93-20.1,3.05
				c-5.21-2.96-3.51-14.39-7.34-18.87c-3.79-4.44-15.39-4.67-17.37-10.42c-1.98-5.75,7.02-13.07,7.27-18.9
				c0.26-5.89-8.11-13.85-5.84-19.39c2.21-5.38,13.84-5.33,17.72-9.97c3.71-4.44,1.44-15.85,6.47-19.25
				c4.77-3.22,14.55,3.03,20.33,1.04c5.78-1.99,9.63-12.94,15.37-13.34c6.06-0.42,11.31,9.97,16.96,11.18
				c5.92,1.27,15.05-5.93,20.1-3.05c5.21,2.96,3.51,14.39,7.34,18.87C1263.91,785.6,1275.5,785.83,1277.48,791.58z"/>
		</g>
	</g>
</g>
<g id="monkey_v1" class="st0">
	<path class="st1" d="M1562.51,1149.03l-7.41,9.52l-36.8,47.31l-110.02,141.46c0.21-0.02,0.43-0.05,0.64-0.08l117.02-150.46
		l36.8-47.31C1562.66,1149.32,1562.59,1149.18,1562.51,1149.03z M1299.88,1347.99l-0.05,0.11c0.47,0.07,0.94,0.13,1.41,0.19v-0.1
		C1300.78,1348.13,1300.33,1348.06,1299.88,1347.99z"/>
	<path class="st2" d="M1550.78,1636.17l-9.89,12.71c-0.58-11.09-5.85-20.6-17.94-27.44c-13.22-7.48-32.08-10.34-49.64-7.66h-0.01
		c-0.18-0.11-0.35-0.2-0.54-0.29l-73.43-34.28l-102-47.61l-23.75-11.09l72.36-93.04l2.02-2.6l53.32-68.55l1.81-2.33l4.71-6.05
		l0.48-0.62l110.02-141.46l36.8-47.31l7.41-9.52c0.08,0.15,0.15,0.29,0.23,0.44l-36.8,47.31l-117.02,150.46l-0.52,0.7l-4.45,6.05
		l-42.58,57.85l-0.93,1.26l-2.23,2.86c-0.11-0.27-0.22-0.52-0.34-0.79l-1.43,3.07l-0.2,0.42l-72.36,93.04l23.75,11.09l102,47.61
		l73.43,34.28c0.19,0.09,0.36,0.18,0.54,0.29h0.01c17.56-2.68,36.42,0.18,49.64,7.66
		C1543.9,1618.65,1549.25,1626.75,1550.78,1636.17z"/>
	<path class="st1" d="M1718.66,1676.88l-0.14,0.04l-20.06,5.47l-30.65,8.35l-24.04,6.56l-137.47,37.48l-16.46,4.49l-23.68,6.46
		l18.38-23.64c20.3,3.57,36.36-14.21,50.04-38.4c8.83-15.62,14.64-30.83,13.95-43.88v-0.01l131.89-169.57
		c17.36,64.32,31.42,130.58,36.81,188.35C1717.81,1664.78,1718.29,1670.89,1718.66,1676.88z"/>
	<path class="st1" d="M1892.14,2012.85c0,29.38-62.37,24.05-111.91,24.05c-49.55,0-89.71,1.1-89.71-28.28
		c0-10.51,5.24-21.41,14.21-30.67c17.99-26.52,38.52-49.3,46.23-95.06c3.78-22.47-2.31-36.03-15.75-53.7c0-0.01-0.02-0.01-0.02-0.01
		c-0.26-0.11-0.49-0.29-0.72-0.54c-22.96-24.62-76.5-80.62-129.3-65.06c-48.08,14.17-52.45,14.3-73.83,40.3
		c-0.01,0.01-0.01,0.02-0.01,0.02l-0.01,0.01c-3.72,3.45-20.18,36.47-22.2,41.03c-9.12,20.64-17.25,39.82-26.72,59.93
		c-27.3,58-78.8,110.43-118.79,131.17c9.2,6.5,51.88,24.74,66.89,35.69c22.72,16.59,10.85,52.57-17.28,52.37
		c-34.42-0.24-77.17-7.79-103.84-13.64c-58.61-12.87-120.51-28.02-108.66-57.45c12.29-30.53,28.73-28.1,54.19-52.27
		c1.81-1.57,3.63-3.13,5.48-4.68l29.43-23.6l0,0c34.79-27.59,72.02-59.24,99.07-117.25c3.48-7.46,6.79-15.1,9.89-22.85
		c0,0,0.01,0,0.01-0.01l67.37-86.62l23.68-6.46l16.46-4.49l137.47-37.48l24.04-6.56l30.65-8.35l20.06-5.47
		c3.83,2.06,7.74,4.47,11.69,7.19c20.91,14.36,43.02,37.41,60.56,64.02c9.01,13.68,16.82,28.3,22.64,43.17
		c9.12,23.33,13.35,47.26,9.67,69.14c-8.75,51.95-13.45,80.64-30.45,97.34C1839.02,1967.27,1892.14,1985.92,1892.14,2012.85z"/>
	<path class="st1" d="M1581.06,1003.32c-23.96-35.27-73.98-43.13-112-17.72c-51.24-53.37-124.37-81.78-201.93-51.17
		c-9.62,3.8-18.84,8-27.64,12.6c-1.5-6.35-4.12-13.45-7.79-20.63c-10.32-20.2-24.99-33.36-32.75-29.39
		c-6.11,3.12-6.14,15.91-0.83,31.06c-0.18-0.09-0.36-0.18-0.54-0.27c-27.72-14.13-53.63-18.84-57.86-10.53
		c-4.24,8.32,14.8,26.5,42.52,40.63c8.22,4.19,16.28,7.55,23.67,9.98c-48.92,35.93-79.29,86.37-85.69,144.95
		c-7.29,1.04-14.6,3.03-21.76,6.02c-42.49,17.76-63.54,64.21-47.01,103.75c16.1,38.53,61.97,56.28,103.62,40.7
		c33.43,51.34,85.39,75.88,142.15,84.42c0.87,0.13,1.74,0.26,2.61,0.38l0.05-0.11c0.45,0.07,0.9,0.14,1.36,0.2v0.1
		c-0.47-0.06-0.94-0.12-1.41-0.19l-78.44,168.03c-0.18,0.38-0.35,0.77-0.51,1.15c-3.63,8.8-7.17,17.63-11.19,26.25l-3.7,7.92
		c-1.52,5.33-0.18,13.16,5.8,15.95l21.11,9.85l191.6,89.45l15.95,7.45c6.45,18.42,19.91,35.4,34.39,43.58
		c4.29,2.43,8.41,3.94,12.36,4.63c20.3,3.57,36.36-14.21,50.04-38.4c8.83-15.62,14.64-30.83,13.95-43.88v-0.01
		c-0.07-1.33-0.21-2.63-0.41-3.9l-9.89,12.71c-0.58-11.09-5.85-20.6-17.94-27.44c-13.22-7.48-32.08-10.34-49.64-7.66h-0.01
		c-0.18-0.11-0.35-0.2-0.54-0.29l-73.43-34.28l-102-47.61l-23.75-11.09l72.36-93.04l2.02-2.6l53.32-68.55l1.81-2.33l4.71-6.05h-4.42
		c0.59-0.07,1.17-0.14,1.75-0.21c1.05-0.13,2.1-0.27,3.15-0.41l110.02-141.46l36.8-47.31l7.41-9.52
		c-5.07-9.55-10.32-19.37-15.53-29.46c2.95-1.55,5.85-3.29,8.69-5.22C1593.76,1088.48,1605.13,1038.77,1581.06,1003.32z
		 M1385.66,1330.81c-62.69,24.9-126.29,12.92-142.04-26.76c-4.96-12.48-4.59-26.22,0.2-39.96c-26.21-10.35-52.63-33.77-71.38-66.24
		c-25.18-43.62-32.76-116.78,7.71-143.4c27.11-17.84,69.03-10.34,95.05,10.11c8.03,6.31,13.94,13.38,18.54,20.83
		c2.11-14.61,6.73-28.49,14.42-40.69c15.42-24.46,47.28-48.66,79.03-43.84c46.63,7.09,73.72,73.88,69.98,125.4
		c-1.44,19.78-7.59,39.8-16.57,57.46c14.15,6.73,24.78,16.9,30.05,30.18C1486.41,1253.58,1448.36,1305.92,1385.66,1330.81z"/>
	<path class="st1" d="M1301.24,1348.19v0.1c-0.47-0.06-0.94-0.12-1.41-0.19l0.05-0.11
		C1300.33,1348.06,1300.78,1348.13,1301.24,1348.19z"/>
	<path class="st1" d="M1550.78,1636.17l-9.89,12.71c-0.58-11.09-5.85-20.6-17.94-27.44c-13.22-7.48-32.08-10.34-49.64-7.66h-0.01
		c-0.18-0.11-0.35-0.2-0.54-0.29l-73.43-34.28l-102-47.61l-23.75-11.09l72.36-93.04l2.02-2.6l53.32-68.55l1.81-2.33l4.71-6.05h-4.36
		c0.56-0.07,1.12-0.14,1.69-0.21c1.05-0.13,2.1-0.27,3.15-0.41c0.21-0.02,0.43-0.05,0.64-0.08l-0.52,0.7l-4.45,6.05l-42.58,57.85
		l-0.93,1.26l-2.23,2.86c-0.11-0.27-0.22-0.52-0.34-0.79l-1.43,3.07l-0.2,0.42l-72.36,93.04l23.75,11.09l102,47.61l73.43,34.28
		c0.19,0.09,0.36,0.18,0.54,0.29h0.01c17.56-2.68,36.42,0.18,49.64,7.66C1543.9,1618.65,1549.25,1626.75,1550.78,1636.17z"/>
	<path class="st1" d="M1360.44,1413.1l-2.18,2.96c-0.01-0.03-0.03-0.07-0.05-0.1L1360.44,1413.1z"/>
	<path class="st1" d="M1974.42,1120.15c-11.86,41.14-39.6,44.37-56.71,60.04l-33.53,199.17c-3.82,6.89-10.02,16.12-20.35,14.96
		l-26.86-6.38c-20.2-6-40.35-11.99-60.55-17.99c-2.37-0.83-4.75-1.63-7.14-2.37l-10.33-3.22l57.45-73.87l5.62-18.03l33.35-106.93
		c-8.88-19.9-11.9-43.58-8.5-62.16c6.77-37,36.44-39.75,76.19-32.47c21.08,3.86,42.23,6.42,49.22,19.16
		C1981.46,1106.81,1979.31,1103.17,1974.42,1120.15z"/>
	<path class="st1" d="M1220.76,1088.48c-14.37,0-26.3,3.24-35.79,9.73c-9.51,6.49-14.25,19-14.25,37.53
		c0,18.07,4.86,31.86,14.6,41.35c9.73,9.49,21.54,14.25,35.44,14.25c13.44,0,25.6-4.06,36.49-12.16
		c10.88-8.1,16.33-17.73,16.33-28.85C1273.58,1109.1,1255.97,1088.48,1220.76,1088.48z M1251.68,1172.94
		c-9.16,6.82-19.4,10.24-30.7,10.24c-11.69,0-21.63-4.01-29.81-11.99c-8.19-7.99-12.28-19.59-12.28-34.79
		c0-15.58,3.99-26.11,11.98-31.57c7.99-5.45,18.03-8.19,30.11-8.19c29.62,0,44.44,17.35,44.44,52.04
		C1265.42,1158.03,1260.83,1166.13,1251.68,1172.94z"/>
	<path class="st1" d="M1384.3,1037.04c-14.37,0-26.3,3.25-35.8,9.73c-9.5,6.5-14.24,19.01-14.24,37.54
		c0,18.07,4.86,31.86,14.59,41.35c9.73,9.49,21.55,14.25,35.45,14.25c13.43,0,25.6-4.06,36.49-12.16
		c10.88-8.11,16.33-17.73,16.33-28.85C1437.12,1057.67,1419.51,1037.04,1384.3,1037.04z M1415.21,1121.51
		c-9.16,6.82-19.39,10.23-30.69,10.23c-11.7,0-21.63-4-29.82-11.98c-8.19-7.99-12.28-19.59-12.28-34.79
		c0-15.59,3.99-26.11,11.99-31.57c7.98-5.46,18.02-8.19,30.11-8.19c29.62,0,44.43,17.35,44.43,52.03
		C1428.95,1106.6,1424.37,1114.69,1415.21,1121.51z"/>
	<g class="st3">
		<path class="st4" d="M313.4,201.4c0,28.88-14.15,53.87-42.42,74.92c-28.28,21.04-59.87,31.59-94.77,31.59
			c-36.1,0-66.78-12.36-92.05-37.01c-25.28-24.65-37.91-60.47-37.91-107.4c0-48.12,12.32-80.61,37-97.48
			c24.65-16.83,55.65-25.27,92.96-25.27C267.66,40.76,313.4,94.32,313.4,201.4z"/>
	</g>
	<g class="st3">
		<path class="st12" d="M651.61,201.4c0,28.88-14.15,53.87-42.42,74.92c-28.28,21.04-59.87,31.59-94.77,31.59
			c-36.1,0-66.78-12.36-92.05-37.01c-25.28-24.65-37.91-60.47-37.91-107.4c0-48.12,12.32-80.61,37-97.48
			c24.65-16.83,55.65-25.27,92.96-25.27C605.87,40.76,651.61,94.32,651.61,201.4z"/>
	</g>
	<g class="st3">
		<path class="st4" d="M1378.48,1113.48c-3.59,0.32-6.85-1.15-9.78-4.43c-2.93-3.28-4.6-7.08-4.99-11.41
			c-0.41-4.48,0.78-8.43,3.56-11.85c2.78-3.42,7.08-5.39,12.91-5.91c5.98-0.54,10.15,0.62,12.52,3.5c2.37,2.87,3.76,6.63,4.18,11.26
			C1397.91,1106,1391.77,1112.28,1378.48,1113.48z"/>
	</g>
	<g class="st3">
		<path class="st4" d="M1214.09,1164c-3.59,0.32-6.85-1.15-9.78-4.43c-2.93-3.28-4.6-7.08-4.99-11.41
			c-0.41-4.48,0.78-8.43,3.56-11.85c2.78-3.42,7.08-5.39,12.91-5.91c5.98-0.54,10.15,0.62,12.52,3.5c2.37,2.87,3.76,6.63,4.18,11.26
			C1233.53,1156.51,1227.39,1162.79,1214.09,1164z"/>
	</g>
	<g class="st3">
		<path class="st4" d="M1829.98,1436.05c-49.51,7.49-93.13,33.81-122.83,74.1c-20.05,27.19-33.64,57.78-40.31,89.91
			c8.8,13.32,16.25,28.13,22.24,43.38c0.68-42.03,14.35-82.73,39.8-117.26c25.42-34.5,62.76-57.03,105.13-63.43
			c42.37-6.41,84.7,4.07,119.2,29.48c55.76,41.11,67.69,119.93,26.58,175.69c-32.01,43.42-93.36,52.7-136.77,20.7
			c-16.25-11.98-26.85-29.56-29.88-49.51c-3.01-19.95,1.92-39.89,13.89-56.13c9.15-12.41,22.59-20.52,37.85-22.83
			c15.24-2.31,30.49,1.46,42.9,10.62c9.35,6.89,15.46,17.02,17.19,28.5c1.74,11.49-1.1,22.96-7.99,32.32
			c-10.5,14.24-30.64,17.29-44.88,6.78c-10.2-7.52-12.38-21.93-4.87-32.12c5.14-6.96,14.97-8.45,21.93-3.32
			c6.01,4.43,14.46,3.15,18.88-2.85c4.43-6.01,3.14-14.45-2.86-18.87c-18.94-13.97-45.72-9.91-59.68,9.02
			c-16.35,22.18-11.6,53.53,10.57,69.89c26.22,19.33,63.29,13.73,82.63-12.5c11.18-15.16,15.77-33.76,12.95-52.37
			c-2.82-18.62-12.71-35.02-27.86-46.19c-18.22-13.43-40.58-18.97-62.96-15.58c-22.38,3.38-42.1,15.29-55.53,33.51
			c-16.26,22.05-22.95,49.11-18.86,76.19c4.11,27.08,18.5,50.96,40.54,67.21c55.4,40.84,133.7,28.99,174.53-26.4
			c49.94-67.75,35.46-163.51-32.29-213.45C1928.93,1440.8,1879.48,1428.56,1829.98,1436.05z"/>
	</g>
	<path class="st1" d="M2272.22,579.66l-67.06,209.99c-2.47,7.76-11.91,10.7-18.36,5.73l-203.6-156.89
		c-6.37-4.91-6.04-14.62,0.65-19.08l181.71-121.15c9.92-6.61,22.61-6.93,32.75-1.15c1.24,0.7,2.44,1.5,3.6,2.39l59.63,45.95
		c3.7,2.86,6.63,6.43,8.68,10.41C2273.94,563.06,2274.8,571.6,2272.22,579.66z"/>
	<path class="st13" d="M2327.21,486.13l-65.15,73.43c-2.05-3.98-4.98-7.55-8.68-10.41l-59.63-45.95c-1.16-0.89-2.36-1.69-3.6-2.39
		l38.66-43.57c1.04-1.17,2.65-1.67,4.17-1.28l92.13,23.32C2328.15,480.05,2329.3,483.78,2327.21,486.13z"/>
	<path class="st6" d="M1470.65,1213.9c-5.27-13.28-15.9-23.45-30.05-30.18c8.98-17.66,15.13-37.68,16.57-57.46
		c3.74-51.52-23.35-118.31-69.98-125.4c-31.75-4.82-63.61,19.38-79.03,43.84c-7.69,12.2-12.31,26.08-14.42,40.69
		c-4.6-7.45-10.51-14.52-18.54-20.83c-26.02-20.45-67.94-27.95-95.05-10.11c-40.47,26.62-32.89,99.78-7.71,143.4
		c18.75,32.47,45.17,55.89,71.38,66.24c-4.79,13.74-5.16,27.48-0.2,39.96c15.75,39.68,79.35,51.66,142.04,26.76
		C1448.36,1305.92,1486.41,1253.58,1470.65,1213.9z M1257.25,1179.18c-10.89,8.1-23.05,12.16-36.49,12.16
		c-13.9,0-25.71-4.76-35.44-14.25c-9.74-9.49-14.6-23.28-14.6-41.35c0-18.53,4.74-31.04,14.25-37.53
		c9.49-6.49,21.42-9.73,35.79-9.73c35.21,0,52.82,20.62,52.82,61.85C1273.58,1161.45,1268.13,1171.08,1257.25,1179.18z
		 M1420.79,1127.75c-10.89,8.1-23.06,12.16-36.49,12.16c-13.9,0-25.72-4.76-35.45-14.25c-9.73-9.49-14.59-23.28-14.59-41.35
		c0-18.53,4.74-31.04,14.24-37.54c9.5-6.48,21.43-9.73,35.8-9.73c35.21,0,52.82,20.63,52.82,61.86
		C1437.12,1110.02,1431.67,1119.64,1420.79,1127.75z"/>
	<path class="st1" d="M1392.64,1222.51c-4.26-8.28-12.06-12.42-23.38-12.42c-7.41,0-13.56,1.68-18.46,5.02
		c-4.9,3.35-7.34,9.8-7.34,19.36c0,0.99,0.03,1.95,0.09,2.89c-2.44-4.35-3.67-9.78-3.67-16.28c0-9.55,2.44-16,7.34-19.36
		c4.9-3.34,11.05-5.02,18.46-5.02C1382.01,1196.7,1391,1205.3,1392.64,1222.51z"/>
	<path class="st1" d="M1328.64,1236.54c-4.26-8.28-12.06-12.42-23.38-12.42c-7.41,0-13.56,1.68-18.46,5.02
		c-4.9,3.35-7.34,9.8-7.34,19.36c0,0.99,0.03,1.95,0.09,2.89c-2.44-4.35-3.67-9.78-3.67-16.28c0-9.55,2.44-16,7.34-19.36
		c4.9-3.34,11.05-5.02,18.46-5.02C1318.01,1210.73,1327,1219.33,1328.64,1236.54z"/>
	<path class="st1" d="M1357.87,1415.17c0.12,0.27,0.23,0.52,0.34,0.79l-1.77,2.28L1357.87,1415.17z"/>
	<polygon class="st1" points="1361.42,1411.84 1360.44,1413.1 1361.37,1411.84 	"/>
	<polygon class="st1" points="1408.4,1347.94 1403.95,1353.99 1403.09,1353.99 1407.8,1347.94 	"/>
	<path class="st13" d="M1954.17,645.43l-391.66,503.6c0.08,0.15,0.15,0.29,0.23,0.44l-36.8,47.31l-117.02,150.46l-0.52,0.7
		l-4.45,6.05l-42.58,57.85l-0.93,1.26l-2.23,2.86c-0.11-0.27-0.22-0.52-0.34-0.79l-1.43,3.07l-0.2,0.42l-72.36,93.04l23.75,11.09
		l102,47.61l73.43,34.28c0.19,0.09,0.36,0.18,0.54,0.29h0.01c17.56-2.68,36.42,0.18,49.64,7.66c10.65,6.02,16,14.12,17.53,23.54
		l122-156.86l87.32-112.27l57.45-73.87l5.62-18.03l33.35-106.93c-8.88-19.9-11.9-43.58-8.5-62.16c6.77-37,36.44-39.75,76.19-32.47
		c21.08,3.86,38.51,9.34,49.22,19.16l209.51-269.38L1954.17,645.43z M1575.84,1270.65l-132.77,170.05
		c-4.06,5.2-11.64,6.14-16.84,2.07v0c-5.2-4.06-6.14-11.64-2.07-16.84l132.77-170.05c4.06-5.2,11.64-6.14,16.84-2.07
		S1579.91,1265.45,1575.84,1270.65z M1639.21,1198.49c-4.06,5.2-11.64,6.14-16.84,2.07l-5.71-4.46c-5.2-4.06-6.14-11.64-2.07-16.84
		l344.75-441.54c4.06-5.2,11.64-6.14,16.84-2.07l5.71,4.46c5.2,4.06,6.14,11.64,2.07,16.84L1639.21,1198.49z"/>
	<path class="st13" d="M1487.84,1722.09l-18.38,23.64l-67.37,86.62c0,0.01-0.01,0.01-0.01,0.01l-108.96,140.1l-17.16,22.07
		c-2.96,3.81-8.46,4.5-12.27,1.53l0,0l-214.98-167.19c-3.81-2.96-4.5-8.45-1.53-12.27l186.36-239.62l191.6,89.45l15.95,7.45
		c6.45,18.42,19.91,35.4,34.39,43.58C1479.77,1719.89,1483.89,1721.4,1487.84,1722.09z"/>
</g>
<g id="colors" class="st0">
	<g class="st3">
		<path class="st4" d="M316.5,173.97c0,23.83-11.68,44.45-35,61.81c-23.34,17.36-49.4,26.06-78.19,26.06
			c-29.79,0-55.1-10.2-75.95-30.53c-20.86-20.34-31.28-49.89-31.28-88.61c0-39.7,10.17-66.51,30.53-80.43
			c20.34-13.89,45.91-20.85,76.7-20.85C278.76,41.43,316.5,85.62,316.5,173.97z"/>
	</g>
	<g class="st3">
		<path class="st10" d="M589.89,173.97c0,23.83-11.68,44.45-35,61.81c-23.34,17.36-49.4,26.06-78.19,26.06
			c-29.79,0-55.1-10.2-75.95-30.53c-20.86-20.34-31.28-49.89-31.28-88.61c0-39.7,10.17-66.51,30.53-80.43
			c20.34-13.89,45.91-20.85,76.7-20.85C552.15,41.43,589.89,85.62,589.89,173.97z"/>
	</g>
</g>
</svg>
